<?xml version="1.0" encoding="UTF-8"?>
<!DOCTYPE svg PUBLIC "-//W3C//DTD SVG 1.1//EN" "http://www.w3.org/Graphics/SVG/1.1/DTD/svg11.dtd">
<!-- Creator: CorelDRAW 2019 (64-Bit) -->
<svg xmlns="http://www.w3.org/2000/svg" xml:space="preserve" width="42.3332mm" height="12.7mm" version="1.1" style="shape-rendering:geometricPrecision; text-rendering:geometricPrecision; image-rendering:optimizeQuality; fill-rule:evenodd; clip-rule:evenodd"
viewBox="0 0 4233.32 1270"
 xmlns:xlink="http://www.w3.org/1999/xlink"
 xmlns:xodm="http://www.corel.com/coreldraw/odm/2003">
 <defs>
  <style type="text/css">
   <![CDATA[
    .fil0 {fill:#373435;fill-rule:nonzero}
   ]]>
  </style>
 </defs>
 <g id="Capa_x0020_1">
  <metadata id="CorelCorpID_0Corel-Layer"/>
  <path class="fil0" d="M693 347.57l0 629.86 135.93 0 0 -569.68 144.24 569.68 147.34 0 144.24 -569.68 0 569.68 135.93 0 0 -705.61 -214.79 0 -138.01 537.51 -142.16 -537.51 -140.09 0c-40.46,0 -72.63,35.28 -72.63,75.75zm1263.87 461.76l-101.7 0c-18.67,0 -34.24,6.23 -46.69,19.71 -26.98,25.95 -57.07,39.44 -89.24,39.44 -67.45,0 -103.76,-42.55 -108.95,-126.6l354.88 0c10.37,-214.79 -71.6,-321.67 -245.93,-321.67 -167.06,1.03 -251.11,94.42 -251.11,281.2 0,186.78 83.01,283.28 249.04,288.47 134.89,0 209.6,-64.33 239.7,-180.55zm-239.7 -276.02c59.14,0 93.39,37.36 101.69,109.99l-206.5 0c10.38,-72.63 45.66,-109.99 104.81,-109.99zm437.88 263.57l-141.12 0c0,63.29 20.76,111.03 62.26,142.16 37.36,32.16 95.47,48.77 172.25,48.77 145.28,0 251.12,-49.81 251.12,-184.71 0,-37.35 -12.45,-70.56 -38.4,-97.54 -30.09,-28.01 -91.31,-51.88 -184.7,-70.56 -71.6,-13.49 -106.88,-35.28 -106.88,-63.3 0,-28.01 26.98,-42.54 80.94,-42.54 45.66,0 73.67,13.49 83.01,37.36 8.3,21.79 29.06,33.2 61.22,34.24l87.17 0c-3.12,-57.07 -24.91,-101.69 -65.37,-133.86 -41.51,-31.13 -97.54,-46.69 -168.11,-46.69 -125.55,2.07 -218.94,58.11 -218.94,176.4 1.04,86.12 63.3,140.08 184.7,161.87 94.43,16.61 142.16,39.43 142.16,67.45 0,35.28 -29.05,51.88 -87.16,51.88 -67.45,0 -111.03,-20.75 -114.15,-80.93zm530.24 0l-141.12 0c0,63.29 20.76,111.03 62.26,142.16 37.36,32.16 95.47,48.77 172.25,48.77 145.28,0 251.12,-49.81 251.12,-184.71 0,-37.35 -12.45,-70.56 -38.4,-97.54 -30.09,-28.01 -91.31,-51.88 -184.7,-70.56 -71.6,-13.49 -106.88,-35.28 -106.88,-63.3 0,-28.01 26.98,-42.54 80.94,-42.54 45.66,0 73.67,13.49 83.01,37.36 8.3,21.79 29.06,33.2 61.22,34.24l87.17 0c-3.12,-57.07 -24.91,-101.69 -65.37,-133.86 -41.51,-31.13 -97.54,-46.69 -168.11,-46.69 -125.55,2.07 -218.94,58.11 -218.94,176.4 1.04,86.12 63.3,140.08 184.7,161.87 94.43,16.61 142.16,39.43 142.16,67.45 0,35.28 -29.05,51.88 -87.16,51.88 -67.45,0 -111.03,-20.75 -114.15,-80.93zm597.69 78.86c-43.58,0 -66.41,-20.75 -69.52,-64.34 0,-40.46 28.02,-66.41 83.01,-76.78 40.47,-8.3 77.83,-19.72 109.99,-33.21l0 50.85c0,77.82 -46.69,123.48 -123.48,123.48zm32.17 -342.43c57.07,0 86.13,15.57 89.24,46.7 0,30.09 -30.09,47.73 -89.24,54.99 -139.05,13.49 -234.51,48.77 -237.62,180.56 0,121.4 91.31,182.62 223.09,172.25 148.39,-10.38 239.7,-77.83 239.7,-229.33l0 -186.78c-3.11,-101.69 -79.9,-151.49 -231.4,-151.49 -126.59,0 -198.19,49.8 -214.79,151.49l138.01 0c7.26,-25.94 34.24,-38.39 83.01,-38.39z"/>
 </g>
</svg>
